# xmcd CD database file
#
# Track frame offsets:
#	150
#	15242
#	34504
#	49102
#	72156
#	94014
#	107449
#	121738
#	135193
#	151480
#	164959
#	186348
#
# Disc length: 2726 seconds
#
# Revision: 1
# Processed by: cddbd v1.5.2PL0 Copyright (c) Steve Scherf et al.
# Submitted via: CDex 1.51
#
DISCID=900aa40c
DTITLE=Wall Street Dixies - Dixies` Land
DYEAR=1900
DGENRE=Jazz
TTITLE0=Harlem Bound
TTITLE1=St. James Infirmary
TTITLE2=Jazz me blues
TTITLE3=Mack the knife
TTITLE4=Basin street blues
TTITLE5=My blue heaven
TTITLE6=Savoy blues
TTITLE7=Emanuelle
TTITLE8=Someday you`ll be sorry
TTITLE9=Loch Lomond
TTITLE10=When you`re smiling
TTITLE11=Eine Insel mit zwei Bergen
EXTD=
EXTT0=
EXTT1=
EXTT2=
EXTT3=
EXTT4=
EXTT5=
EXTT6=
EXTT7=
EXTT8=
EXTT9=
EXTT10=
EXTT11=
PLAYORDER=
